<svg version="1.1" xmlns="http://www.w3.org/2000/svg" style="display: block;" viewBox="0 0 2048 2048" width="1024" height="1024">
<path transform="translate(0,0)" fill="rgb(245,124,104)" d="M 0 0 L 2048 0 L 2048 2048 L 0 2048 L 0 0 z"/>
<path transform="translate(0,0)" fill="rgb(41,21,72)" d="M 996.771 103.42 C 1027.92 101.211 1057.57 104.089 1087.77 111.998 C 1115.07 119.146 1141.57 129.169 1167.82 139.432 C 1205.87 154.305 1258.58 182.831 1300.24 173.675 C 1333.03 166.467 1354.52 144.545 1372.03 117.367 C 1383.28 152.041 1385.23 192.988 1376.7 228.466 C 1373.75 240.756 1369.2 252.435 1364.66 264.199 C 1386.28 274.955 1409.02 283.392 1430.65 294.16 C 1482.87 320.148 1533.73 353.272 1579.16 389.852 A 892.121 892.121 0 0 1 1899.67 981.847 A 869.29 869.29 0 0 1 1749.69 1571.41 C 1734.6 1593.1 1716.87 1614.09 1700.2 1634.62 C 1665.1 1677.84 1624.83 1714.83 1581.23 1749.26 A 882.475 882.475 0 0 1 1118.76 1939.29 C 1077.08 1942.84 1035.81 1945.13 993.96 1943.9 A 889.486 889.486 0 0 1 609.409 1841.9 A 861.844 861.844 0 0 1 184.01 1334.76 A 867.405 867.405 0 0 1 243.232 662.853 A 899.797 899.797 0 0 1 554.368 328.609 C 580.944 311.909 609.381 297.039 637.417 282.991 A 950.721 950.721 0 0 1 773.029 227.482 C 780.142 216.113 787.437 204.956 796.188 194.75 C 843.889 139.118 925.072 109.145 996.771 103.42 z"/>
<path transform="translate(0,0)" fill="rgb(212,204,207)" d="M 1568.7 750.735 C 1571.59 740.764 1575.69 733.273 1581.49 724.69 C 1587.85 733.133 1594.6 741.961 1599.93 751.101 A 1517.84 1517.84 0 0 1 1568.7 750.735 z"/>
<path transform="translate(0,0)" fill="rgb(202,59,44)" d="M 591.486 1257.74 C 608.729 1252.91 625.848 1245.13 642.613 1238.75 C 649.299 1236.21 656.289 1232.92 663.34 1231.74 C 665.348 1234.06 664.914 1235.16 665.018 1238.16 C 660.04 1248.32 644.857 1254.17 634.688 1257.6 C 625.182 1260.81 615.042 1263.32 604.964 1263.49 C 600.48 1263.56 596.041 1263.02 591.563 1263.35 L 591.486 1257.74 z"/>
<path transform="translate(0,0)" fill="rgb(212,204,207)" d="M 1730.03 1460.39 C 1748.5 1459.75 1767.31 1460.17 1785.77 1460.8 A 1012.05 1012.05 0 0 1 1760.24 1506.55 A 432.74 432.74 0 0 1 1744.51 1530.17 C 1738.45 1507.49 1734.15 1483.52 1730.03 1460.39 z"/>
<path transform="translate(0,0)" fill="rgb(253,253,253)" d="M 1581.49 724.69 C 1593.9 709.541 1608.79 699.353 1628.7 697.305 A 65.7466 65.7466 0 0 1 1677.17 711.673 C 1690.27 722.387 1697.26 736.157 1701.87 752.15 C 1667.89 752.235 1633.88 752.557 1599.93 751.101 C 1594.6 741.961 1587.85 733.133 1581.49 724.69 z"/>
<path transform="translate(0,0)" fill="rgb(32,47,94)" d="M 1307.75 348.67 C 1308.49 348.66 1309.24 348.647 1309.99 348.673 C 1314.86 348.848 1319.18 352.916 1322.38 356.236 C 1366.19 401.678 1350.55 477.691 1350.01 534.47 C 1344.03 519.193 1339.2 504.363 1331.64 489.636 C 1311.69 450.895 1281.25 418.084 1240.59 400.833 C 1265.23 385.858 1287.15 368.833 1307.75 348.67 z"/>
<path transform="translate(0,0)" fill="rgb(245,142,39)" d="M 1021.98 1235.8 C 1030.29 1237.24 1080.43 1273.94 1091.53 1281.22 C 1080.03 1301.21 1062.54 1326.57 1047.78 1344.44 L 1024.75 1343.71 C 1015.26 1343.42 1005.72 1343.56 996.219 1343.49 C 982.753 1322.92 968.237 1302.92 955.345 1282 C 976.129 1265.01 999.569 1250.58 1021.98 1235.8 z"/>
<path transform="translate(0,0)" fill="rgb(32,47,94)" d="M 751.05 333.254 C 751.962 333.118 753.091 332.922 753.996 332.923 C 754.067 332.923 757.31 333.148 757.577 333.261 C 759.81 334.203 772.285 351.891 775.053 355.127 C 785.407 367.233 797.646 378.143 809.045 389.274 C 787.459 394.619 762.497 396.588 745.041 411.864 C 713.446 439.512 708.294 490.377 706.091 529.75 A 1184.81 1184.81 0 0 0 705.032 567.459 C 695.762 544.493 689.803 517.509 685.517 493.078 C 678.218 451.481 673.765 403.024 699.547 366.82 C 711.995 349.34 729.73 336.892 751.05 333.254 z"/>
<path transform="translate(0,0)" fill="rgb(245,124,104)" d="M 1313.62 628.826 C 1322.78 621.198 1334.27 616.101 1346.41 617.312 C 1357.33 618.402 1367.05 623.255 1373.93 631.885 C 1388.39 650.03 1390.98 678.736 1387.89 700.903 C 1384.04 728.474 1369.57 755.937 1347.01 772.657 C 1336.31 780.589 1321.69 786.482 1308.19 785.924 L 1306.49 785.03 C 1303.22 771.67 1307.78 754.295 1307.99 740.51 C 1308.84 715.408 1311.16 689.794 1312.92 664.703 C 1313.55 652.728 1313.64 640.815 1313.62 628.826 z"/>
<path transform="translate(0,0)" fill="rgb(202,59,44)" d="M 1312.92 664.703 C 1325.19 664.536 1335.95 664.531 1345.32 673.8 C 1351.66 680.081 1354.61 688.457 1354.55 697.294 C 1354.47 710.33 1348.79 724.477 1339.07 733.311 C 1333.3 738.564 1325.45 742.115 1317.55 741.694 C 1314.35 741.524 1311.15 741.004 1307.99 740.51 C 1308.84 715.408 1311.16 689.794 1312.92 664.703 z"/>
<path transform="translate(0,0)" fill="rgb(202,59,44)" d="M 867.027 997.999 C 906.186 1045.19 948.143 1084.02 1012.01 1089.83 C 1061.38 1094.32 1104.04 1077.01 1141.49 1045.54 C 1156.1 1033.27 1167.19 1018.35 1181.01 1005.58 C 1182.45 1022.66 1182.01 1039.86 1182 1056.99 C 1181.99 1068.94 1182.48 1081.14 1181.83 1093.07 C 1178.94 1076.54 1180.97 1056.62 1181.12 1039.72 C 1166.36 1049.75 1153.24 1063.7 1139.98 1075.67 C 1106.73 1105.66 1066.39 1124.89 1021 1124.97 C 955.283 1125.1 910.854 1086.19 866.982 1042.56 L 867.027 997.999 z"/>
<path transform="translate(0,0)" fill="rgb(245,124,104)" d="M 745.3 782.925 C 727.151 783.512 711.41 780.519 696.849 768.989 C 675.469 752.06 660.817 721.313 657.887 694.523 C 655.84 675.804 660.57 657.147 672.66 642.527 C 684.293 628.46 702.644 620.328 720.709 619.111 C 726.118 618.746 731.805 619.574 735.892 623.44 C 744.652 631.729 741.985 652.451 741.924 663.601 C 741.866 685.663 741.223 708.006 742.971 730.009 C 743.062 747.599 744.887 765.294 745.3 782.925 z"/>
<path transform="translate(0,0)" fill="rgb(202,59,44)" d="M 742.971 730.009 C 730.432 731.231 718.952 730.075 708.617 722.002 C 701.587 716.511 696.869 708.578 696.183 699.611 C 695.525 690.992 698.667 682.563 704.447 676.189 C 714.639 664.95 727.824 664.234 741.924 663.601 C 741.866 685.663 741.223 708.006 742.971 730.009 z"/>
<path transform="translate(0,0)" fill="rgb(180,155,164)" d="M 1484.81 1237.04 C 1498.86 1233.56 1514.99 1234.83 1529.44 1234.68 L 1594.26 1234.08 L 1862.5 1233.18 C 1859.82 1244.57 1857.64 1256.34 1854.38 1267.57 L 1617.88 1267.3 C 1583.34 1267.25 1548.45 1268.64 1513.96 1267.45 L 1514.28 1245.76 C 1504.65 1242.91 1494.06 1240.73 1484.81 1237.04 z"/>
<path transform="translate(0,0)" fill="rgb(253,253,253)" d="M 938.358 1292.82 C 940.919 1293.57 975.905 1346.72 981.19 1354.55 C 969.524 1406.38 963.422 1459.9 954.463 1512.29 C 949.723 1503.75 945.516 1494.83 941.094 1486.12 A 7194.62 7194.62 0 0 1 898.472 1401.51 C 888.637 1382.06 877.78 1362.59 869.777 1342.32 C 891.846 1324.69 915.135 1308.87 938.358 1292.82 z"/>
<path transform="translate(0,0)" fill="rgb(253,253,253)" d="M 1107.05 1292.45 C 1115.34 1296.56 1123.09 1302.77 1130.71 1308.03 A 3124.87 3124.87 0 0 1 1177.66 1340.95 A 4289.65 4289.65 0 0 0 1106.05 1482.09 A 373.49 373.49 0 0 1 1088.82 1514.56 C 1082.63 1461.91 1071.13 1409.73 1064.16 1357.17 C 1077.69 1335.23 1092.81 1313.95 1107.05 1292.45 z"/>
<path transform="translate(0,0)" fill="rgb(212,204,207)" d="M 1484.81 1237.04 C 1487.88 1227.8 1491.14 1218.53 1498.09 1211.38 C 1503.07 1206.26 1510 1202.27 1517.11 1201.21 C 1531.2 1199.11 1546.18 1199.93 1560.42 1199.9 L 1629.08 1199.8 L 1868.62 1199.65 L 1862.5 1233.18 L 1594.26 1234.08 L 1529.44 1234.68 C 1514.99 1234.83 1498.86 1233.56 1484.81 1237.04 z"/>
<path transform="translate(0,0)" fill="rgb(32,47,94)" d="M 664.995 1321.19 C 669.583 1323.76 730.874 1321.98 740.998 1322.1 C 730.097 1340.15 721.331 1360.04 709.672 1377.49 C 718.989 1385.97 729.302 1393.24 738.966 1401.31 L 811.658 1462.31 C 839.353 1485.66 866.013 1510.23 893.419 1533.92 C 918.366 1555.48 944.479 1576.4 968.42 1599.04 C 982.324 1612.19 994.598 1627.1 1008.17 1640.62 C 1008.11 1647.25 1008.41 1654.15 1007.39 1660.7 C 1007.33 1659.75 1007.29 1658.8 1007.17 1657.86 C 1006.59 1652.98 997.532 1653.27 993.519 1651.44 C 976.259 1643.58 955.611 1621.46 940.532 1608.45 L 750.159 1447.41 C 727.232 1427.75 701.718 1409.19 680.376 1387.98 C 693.374 1375.98 703.4 1358.6 713.574 1344.1 L 664.815 1343.78 L 664.995 1321.19 z"/>
<path transform="translate(0,0)" fill="rgb(245,142,39)" d="M 1459.72 1253.32 L 1491.08 1265.27 L 1491.48 1544.58 A 13224.4 13224.4 0 0 1 1491.55 1710.75 C 1491.43 1734.49 1491.89 1758.35 1491.2 1782.07 C 1480.53 1789.55 1470.09 1795.73 1458.3 1801.25 C 1456.89 1781.58 1457.92 1761.15 1457.93 1741.41 L 1458.02 1630.35 L 1458 1361.45 C 1458.01 1341.95 1455.88 1265.42 1459.72 1253.32 z"/>
<path transform="translate(0,0)" fill="rgb(245,142,39)" d="M 1007.9 1362.45 C 1020.55 1361.82 1033.54 1362.11 1046.2 1362.56 A 3454.26 3454.26 0 0 0 1063.06 1475.72 C 1066.88 1499.23 1072.16 1523.49 1073.19 1547.32 C 1061.05 1570.84 1043.72 1596.42 1029.11 1618.88 L 1022.72 1628.52 C 1002.8 1601.37 986.006 1572.66 970.087 1543.02 C 974.874 1507.45 981.385 1472 986.658 1436.48 C 989.953 1414.28 991.868 1384.88 998.341 1363.84 C 1001 1362.26 1004.87 1362.57 1007.9 1362.45 z"/>
<path transform="translate(0,0)" fill="rgb(245,124,104)" d="M 866.982 1042.56 C 910.854 1086.19 955.283 1125.1 1021 1124.97 C 1066.39 1124.89 1106.73 1105.66 1139.98 1075.67 C 1153.24 1063.7 1166.36 1049.75 1181.12 1039.72 C 1180.97 1056.62 1178.94 1076.54 1181.83 1093.07 L 1181.95 1098.04 C 1177.14 1104.49 1165.92 1110.95 1159.24 1115.94 C 1129.19 1138.42 1098.55 1159.9 1068 1181.68 C 1052.81 1192.5 1038.21 1204.22 1022.71 1214.58 L 936.206 1152.91 C 912.919 1136.41 888.173 1120.26 866.664 1101.47 C 867.231 1081.85 866.981 1062.19 866.982 1042.56 z"/>
<path transform="translate(0,0)" fill="rgb(245,142,39)" d="M 554.917 1270.29 C 566.826 1265.53 579.314 1261.8 591.486 1257.74 L 591.563 1263.35 C 589.605 1307.34 591.082 1351.95 591.01 1396.01 L 591.033 1682.84 C 591.086 1722.8 592.57 1763.03 591.76 1802.95 C 578.931 1795 566.026 1787.01 553.797 1778.16 A 21007.6 21007.6 0 0 0 554.079 1472.7 C 553.949 1405.4 552.704 1337.53 554.917 1270.29 z"/>
<path transform="translate(0,0)" fill="rgb(163,22,29)" d="M 1607.04 1291.16 C 1615.12 1290.49 1623.86 1291.5 1631.99 1291.69 A 1973.51 1973.51 0 0 0 1674.95 1292.03 L 1849.28 1292.05 C 1840.12 1329.2 1826.92 1364.4 1812.61 1399.76 C 1807.87 1411.54 1803.05 1423.56 1797.01 1434.73 C 1772.39 1434.58 1747.79 1434.99 1723.17 1434.62 C 1706.51 1384.55 1678.3 1342.16 1636.03 1310.05 C 1627.08 1303.25 1616.71 1298.44 1607.72 1291.69 L 1607.04 1291.16 z"/>
<path transform="translate(0,0)" fill="rgb(253,253,253)" d="M 852.398 1115.79 C 866.595 1123.1 885.613 1139.91 899.321 1149.92 C 933.377 1174.79 967.62 1199.77 1002.25 1223.81 A 7316.16 7316.16 0 0 0 908.502 1290.6 C 892.685 1301.83 877.049 1313.75 860.604 1324.03 C 835.991 1276.04 813.521 1226.96 788.233 1179.33 C 808.44 1157.05 830.608 1136.51 852.398 1115.79 z"/>
<path transform="translate(0,0)" fill="rgb(253,253,253)" d="M 1194.72 1114.01 C 1202.23 1122.32 1211.13 1129.56 1219.08 1137.49 A 764.917 764.917 0 0 1 1260.5 1183.21 C 1246.56 1205.15 1235.67 1229.95 1223.77 1253.07 C 1211.58 1276.76 1198.1 1299.84 1186.54 1323.83 C 1170.72 1314.52 1155.67 1302.14 1140.5 1291.67 C 1122.37 1278.93 1104.51 1265.82 1086.28 1253.21 C 1071.99 1243.32 1056 1233.96 1043.25 1222.18 C 1071.95 1203.64 1099.01 1182.49 1126.55 1162.3 C 1148.99 1145.84 1172.06 1130.19 1194.72 1114.01 z"/>
<path transform="translate(0,0)" fill="rgb(245,142,39)" d="M 1280.13 1189.53 C 1307.62 1200.53 1335.81 1209.03 1363.39 1219.59 C 1357.28 1247.3 1355.02 1276.64 1351.72 1304.83 C 1324.53 1303.06 1296.64 1304.13 1269.36 1303.9 C 1286.35 1321.94 1302.73 1340.75 1319.55 1358.99 C 1265.97 1403.59 1215.06 1451.3 1161.68 1496.11 C 1136.53 1516.62 1111.83 1536.74 1088.8 1559.68 C 1101.34 1532.26 1115.99 1506.2 1129.68 1479.38 L 1201.42 1338.34 C 1210.68 1320.26 1219.57 1301.97 1229.08 1284.03 C 1236.57 1269.9 1244.75 1256.14 1252.15 1241.96 C 1261.2 1224.61 1268.97 1205.6 1280.13 1189.53 z"/>
<path transform="translate(0,0)" fill="rgb(245,142,39)" d="M 771.064 1188 C 775.392 1191.4 806.21 1258.06 811.422 1268.3 A 19720.2 19720.2 0 0 1 906.853 1462.15 C 923.529 1495.7 943.134 1528.56 957.868 1562.98 C 936.418 1540.23 911.462 1521.11 887.908 1500.65 C 835.79 1458.29 786.148 1412.96 733.856 1370.71 C 750.633 1347.85 768.284 1326.09 783.556 1302.12 A 8980.26 8980.26 0 0 0 688.5 1301.96 A 2147.99 2147.99 0 0 0 688.709 1220.59 C 716.208 1209.8 743.703 1199.15 771.064 1188 z"/>
<path transform="translate(0,0)" fill="rgb(245,142,39)" d="M 1619.53 778.228 C 1647.72 778.158 1676.07 778.701 1704.22 777.222 L 1704.24 1024.51 L 1704.7 1118.73 C 1704.75 1134.61 1705.48 1150.88 1704.52 1166.73 C 1704.34 1169.58 1704.38 1171.35 1702.55 1173.6 L 1700.35 1173.47 C 1685.63 1174.64 1670.22 1173.44 1655.42 1173.46 L 1568.58 1173.98 L 1568.68 778.713 C 1585.56 777.871 1602.63 778.071 1619.53 778.228 z"/>
<path transform="translate(0,0)" fill="rgb(253,253,253)" d="M 1631.01 844.133 C 1633.26 844.054 1635.59 843.942 1637.8 844.387 C 1642.23 845.28 1646.51 848.134 1648.89 851.999 C 1651.21 855.751 1651.86 860.096 1650.62 864.336 C 1648.85 870.427 1644.47 873.415 1639.08 876.109 C 1636.76 876.149 1634.5 876.204 1632.22 875.699 C 1627.9 874.742 1623.9 872.079 1621.56 868.286 C 1619.15 864.362 1618.71 859.963 1620.06 855.572 C 1621.89 849.597 1625.8 847.069 1631.01 844.133 z"/>
<path transform="translate(0,0)" fill="rgb(253,253,253)" d="M 1640.55 1105.88 C 1639.18 1106.24 1637.79 1106.58 1636.37 1106.73 C 1632.26 1107.18 1627.38 1105.66 1624.25 1102.95 C 1620.84 1099.99 1619.04 1095.42 1619.06 1090.95 C 1619.08 1086.31 1620.98 1081.64 1624.33 1078.41 C 1628.96 1073.93 1634.12 1072.92 1640.35 1073.23 C 1644.98 1076.91 1648.89 1080.58 1649.79 1086.72 C 1650.51 1091.72 1648.22 1097.66 1644.99 1101.43 C 1643.64 1103.02 1642.08 1104.46 1640.55 1105.88 z"/>
<path transform="translate(0,0)" fill="rgb(253,253,253)" d="M 1625.92 956.199 C 1638.26 953.848 1650.3 955.262 1660.84 962.555 C 1670.42 969.183 1677.53 979.704 1679.5 991.239 A 44.2804 44.2804 0 0 1 1670.79 1026.04 C 1666 1032.27 1659.97 1036.59 1653.19 1040.43 C 1641.85 1044.39 1629.12 1044.58 1618.21 1039.15 C 1607.64 1033.89 1599.84 1024.01 1596.3 1012.84 C 1592.52 1000.87 1594.19 987.284 1600.27 976.36 C 1605.91 966.231 1614.81 959.329 1625.92 956.199 z"/>
<path transform="translate(0,0)" fill="rgb(32,47,94)" d="M 1633.83 969.238 C 1639.52 969.353 1644.59 970.23 1649.75 972.754 A 28.6291 28.6291 0 0 1 1664.71 990.064 C 1666.98 997.262 1666.47 1005.24 1662.79 1011.88 C 1657.98 1020.56 1650.7 1024.37 1641.61 1027.17 C 1635.22 1027.4 1629.49 1026.9 1623.71 1023.9 A 29.3043 29.3043 0 0 1 1608.9 1006.03 A 27.7376 27.7376 0 0 1 1611.42 984.006 C 1616.45 975.406 1624.46 971.412 1633.83 969.238 z"/>
<path transform="translate(0,0)" fill="rgb(36,171,185)" d="M 1633.25 983.067 C 1636.16 982.686 1638.53 982.421 1641.43 983.263 C 1645.23 984.367 1648.79 987.394 1650.55 990.912 C 1652.54 994.887 1652.62 999.69 1651 1003.81 C 1648.94 1009.07 1645.23 1011.27 1640.34 1013.61 C 1637.92 1013.58 1635.39 1013.56 1633 1013.13 C 1629.28 1012.46 1625.17 1009.94 1623.07 1006.79 C 1621.1 1003.83 1620.72 1000.31 1621.47 996.88 C 1622.94 990.154 1627.79 986.621 1633.25 983.067 z"/>
<path transform="translate(0,0)" fill="rgb(250,189,55)" d="M 1619.53 778.228 C 1647.72 778.158 1676.07 778.701 1704.22 777.222 L 1704.24 1024.51 L 1704.7 1118.73 C 1704.75 1134.61 1705.48 1150.88 1704.52 1166.73 C 1704.34 1169.58 1704.38 1171.35 1702.55 1173.6 L 1700.35 1173.47 C 1694.95 1172.05 1688.95 1172.55 1683.4 1172.53 C 1682.93 1162.69 1683.3 1151.45 1680.37 1141.98 C 1675.34 1125.7 1664.13 1123.59 1650.78 1116.67 C 1645.83 1114.1 1642.27 1111.27 1640.55 1105.88 C 1642.08 1104.46 1643.64 1103.02 1644.99 1101.43 C 1648.22 1097.66 1650.51 1091.72 1649.79 1086.72 C 1648.89 1080.58 1644.98 1076.91 1640.35 1073.23 C 1643.41 1068.34 1653.9 1045.28 1653.19 1040.43 C 1659.97 1036.59 1666 1032.27 1670.79 1026.04 A 44.2804 44.2804 0 0 0 1679.5 991.239 C 1677.53 979.704 1670.42 969.183 1660.84 962.555 C 1650.3 955.262 1638.26 953.848 1625.92 956.199 A 118.119 118.119 0 0 1 1625.61 951.805 C 1624.98 939.379 1628.69 926.954 1637.26 917.722 C 1648.18 905.964 1662.64 904.412 1677.68 903.539 C 1663.77 870.034 1658.45 839.465 1659.05 803.281 C 1653.61 803.169 1648.16 802.884 1642.78 802.062 C 1625.42 799.41 1613.62 793.632 1603.04 779.159 C 1608.62 779.108 1613.99 778.938 1619.53 778.228 z"/>
<path transform="translate(0,0)" fill="rgb(253,253,253)" d="M 1514.39 1291.32 C 1555.27 1290.47 1593.4 1310.15 1625.04 1334.68 C 1659.76 1361.6 1686.55 1401.88 1699.84 1443.64 C 1705.18 1460.42 1708.42 1477.79 1712.12 1494.99 C 1716.88 1517.1 1721.4 1538.94 1724.32 1561.4 C 1697.3 1601.59 1664.64 1637.81 1630.67 1672.2 C 1597.69 1704.75 1554.32 1741.32 1515.04 1765.87 C 1514.19 1745.17 1514.84 1724.26 1514.81 1703.54 L 1514.8 1586.45 L 1514.39 1291.32 z"/>
<path transform="translate(0,0)" fill="rgb(253,253,253)" d="M 531.062 1280 L 531.935 1280.86 C 534.107 1291.37 532.368 1305.3 532.363 1316.16 L 532.141 1407.94 C 532.124 1526.59 533.848 1645.44 531.894 1764.06 C 491.116 1738.62 453.945 1704.95 419.826 1671.32 C 392.478 1644.48 367.434 1617.77 344.182 1587.3 C 337.538 1578.6 330.47 1569.99 324.747 1560.65 C 329.516 1513.52 337.312 1456.84 355.157 1413.28 C 362.726 1394.8 373.568 1378.22 386.74 1363.25 C 425.958 1318.69 478.223 1301.96 531.062 1280 z"/>
<path transform="translate(0,0)" fill="rgb(32,47,94)" d="M 830.655 367.938 C 825.526 365.409 820.483 362.817 815.843 359.452 C 799.536 347.628 781.203 329.112 778.357 308.236 C 774.045 276.599 795.856 234.99 814.92 211.201 C 850.395 166.933 932.131 135.862 987.765 130.071 C 1033.3 125.331 1072.48 132.175 1115.61 146.593 C 1125.56 149.92 1138.14 153.53 1146.34 160.177 C 1201.36 181.441 1270.79 218.511 1329.3 192.782 C 1337.98 188.966 1346.26 184.113 1354.63 179.647 L 1355.92 179.968 C 1357.95 211.384 1338.7 259.232 1320.98 284.219 C 1298.34 316.154 1268.17 336.893 1233.17 353.323 C 1148.23 393.194 1077.83 384.216 989.214 370.707 C 951.555 364.966 917.322 360.438 879.226 367.126 C 889.557 355.972 899.902 347.223 914.103 341.375 C 957.158 323.641 1019.61 334.528 1065.94 336.507 C 1089.2 337.501 1115.23 336.989 1138.08 332.544 C 1109.53 329.282 1080.36 324.25 1052.1 318.978 C 1015.29 312.111 976.04 302.468 938.412 305.617 C 885.849 310.016 863.218 329.356 830.655 367.938 z"/>
<path transform="translate(0,0)" fill="rgb(22,89,166)" d="M 825.264 289.467 C 837.882 243.06 870.254 196.761 911.51 171.379 C 928.627 160.848 948.036 153.762 967.425 148.727 C 1013.26 136.825 1060.36 139.648 1106.16 149.958 C 1119.64 152.993 1132.88 157.023 1146.34 160.177 C 1201.36 181.441 1270.79 218.511 1329.3 192.782 C 1337.98 188.966 1346.26 184.113 1354.63 179.647 C 1353.92 191.449 1341.68 209.641 1333.63 217.972 C 1321.66 230.353 1304.86 238.145 1287.84 240.178 C 1241.58 245.703 1176.19 217.09 1131.3 204.107 C 1092.46 192.872 1054.88 183.521 1014.04 184.344 C 954.577 185.542 894.986 207.532 854.061 251.707 C 843.467 263.142 836.667 277.921 825.956 288.789 C 825.729 289.019 825.494 289.241 825.264 289.467 z"/>
<path transform="translate(0,0)" fill="rgb(26,152,174)" d="M 1302.66 812.308 C 1310.65 812.308 1318.17 811.901 1325.95 809.969 C 1355.86 802.55 1381.08 778.278 1396.6 752.572 C 1404.25 758.442 1412.84 762.876 1420.55 768.654 C 1460.54 798.606 1500.16 829.38 1540.68 858.573 C 1540.68 846.96 1539.16 778.839 1541.65 774.25 L 1541.87 1013.32 C 1542.02 1060.95 1543.2 1108.99 1541.79 1156.57 L 1542.03 1174.02 C 1517.29 1174.34 1490.4 1177.65 1472.35 1196.68 C 1464.83 1204.61 1461.2 1213.88 1458.42 1224.19 C 1458.58 1226.73 1458.82 1228.39 1457.75 1230.77 C 1457.29 1230.77 1456.82 1230.85 1456.36 1230.76 C 1448.76 1229.19 1440.01 1224.41 1432.61 1221.69 L 1369.75 1198.76 C 1343.49 1189.02 1316.41 1181.67 1290.28 1171.59 C 1285.34 1169.69 1280.55 1167.44 1276.21 1164.37 C 1265.66 1156.89 1256.86 1145.4 1248.15 1135.85 A 3027.91 3027.91 0 0 0 1208.14 1092.38 C 1207.26 1067.01 1207.72 1041.55 1207.9 1016.17 C 1207.98 1003.79 1206.93 990.07 1208.87 977.921 C 1212.02 969.994 1221.12 961.142 1226.54 954.511 C 1242.06 935.522 1257.63 916.675 1272.7 897.326 C 1280.46 887.375 1289.19 877.399 1294.85 866.066 C 1297.58 860.589 1298.59 855.157 1299.61 849.199 C 1301.53 837.155 1301.81 824.49 1302.66 812.308 z"/>
<path transform="translate(0,0)" fill="rgb(36,171,185)" d="M 1541.29 1052.43 A 4278.12 4278.12 0 0 0 1540.64 1120.62 C 1540.61 1132 1539.31 1145.49 1541.79 1156.57 L 1542.03 1174.02 C 1517.29 1174.34 1490.4 1177.65 1472.35 1196.68 C 1464.83 1204.61 1461.2 1213.88 1458.42 1224.19 C 1435.8 1207.03 1412 1189.47 1387.25 1175.5 C 1397.59 1166.77 1408.8 1158.84 1419.42 1150.43 L 1480.65 1101.43 C 1501.03 1085.23 1520.27 1067.83 1541.29 1052.43 z"/>
<path transform="translate(0,0)" fill="rgb(36,171,185)" d="M 1319.94 837.684 C 1370.43 878.698 1425.39 914.485 1474.4 957.305 C 1453.29 975.297 1430.33 991.091 1408.51 1008.21 C 1378.61 1031.65 1349.39 1056.5 1318.3 1078.34 L 1248.09 1022.5 C 1235.22 1012.32 1220.58 1002.83 1209.27 990.98 C 1209.16 986.639 1209.19 982.248 1208.87 977.921 C 1212.02 969.994 1221.12 961.142 1226.54 954.511 C 1242.06 935.522 1257.63 916.675 1272.7 897.326 C 1280.46 887.375 1289.19 877.399 1294.85 866.066 C 1297.58 860.589 1298.59 855.157 1299.61 849.199 C 1306.41 845.426 1313.32 841.767 1319.94 837.684 z"/>
<path transform="translate(0,0)" fill="rgb(72,65,115)" d="M 591.563 1263.35 C 596.041 1263.02 600.48 1263.56 604.964 1263.49 C 615.042 1263.32 625.182 1260.81 634.688 1257.6 C 644.857 1254.17 660.04 1248.32 665.018 1238.16 C 665.072 1265.78 665.775 1293.59 664.995 1321.19 L 664.815 1343.78 L 713.574 1344.1 C 703.4 1358.6 693.374 1375.98 680.376 1387.98 C 701.718 1409.19 727.232 1427.75 750.159 1447.41 L 940.532 1608.45 C 955.611 1621.46 976.259 1643.58 993.519 1651.44 C 997.532 1653.27 1006.59 1652.98 1007.17 1657.86 C 1007.29 1658.8 1007.33 1659.75 1007.39 1660.7 C 1005.83 1697.21 1007.57 1734.03 1007.94 1770.56 C 1008.44 1819.57 1007.99 1868.72 1007.83 1917.74 C 877.991 1913.8 768.905 1887.71 651.375 1833.03 C 635.751 1825.76 605.249 1813.43 592.284 1803.51 C 592.081 1803.35 591.935 1803.14 591.76 1802.95 C 592.57 1763.03 591.086 1722.8 591.033 1682.84 L 591.01 1396.01 C 591.082 1351.95 589.605 1307.34 591.563 1263.35 z"/>
<path transform="translate(0,0)" fill="rgb(250,189,55)" d="M 602.777 1453.34 C 603.774 1453.45 605.59 1453.51 606.576 1453.9 C 609.197 1454.96 610.202 1457.15 610.859 1459.74 C 612.476 1466.13 611.819 1476.63 608.707 1482.4 C 606.651 1482.16 604.963 1481.71 603.013 1481.02 C 601.829 1479.83 601.019 1478.82 600.51 1477.19 C 598.326 1470.17 599.303 1459.79 602.777 1453.34 z"/>
<path transform="translate(0,0)" fill="rgb(250,189,55)" d="M 601.345 1684.8 L 607.146 1684.96 C 608.574 1685.94 609.315 1686.17 610.103 1687.78 C 613.286 1694.31 612.077 1706.69 609.744 1713.4 C 608.308 1713.35 606.243 1713.47 604.9 1713.01 C 603.188 1712.42 602.398 1711.68 601.493 1710.19 C 597.698 1703.92 599.465 1691.57 601.345 1684.8 z"/>
<path transform="translate(0,0)" fill="rgb(250,189,55)" d="M 602.447 1378.42 C 605.116 1378.64 606.624 1378.59 608.819 1380.29 C 611.671 1384.68 611.829 1389.73 611.322 1394.81 L 611.128 1396.59 C 610.662 1401.07 610.293 1404.33 608.135 1408.34 C 605.827 1408.31 604.414 1408.11 602.3 1407.17 C 601.3 1405.9 600.621 1404.8 600.218 1403.21 C 598.467 1396.31 598.622 1384.51 602.447 1378.42 z"/>
<path transform="translate(0,0)" fill="rgb(250,189,55)" d="M 602.628 1531.84 C 604.453 1531.93 606.217 1532.17 608.031 1532.39 C 610.263 1533.86 611.023 1535.27 611.795 1537.75 C 613.681 1543.81 612.556 1553.93 609.613 1559.49 C 606.826 1559.47 605.295 1559.51 602.776 1558.14 C 601.285 1556.38 600.55 1554.95 600.015 1552.74 C 598.566 1546.74 599.484 1537.13 602.628 1531.84 z"/>
<path transform="translate(0,0)" fill="rgb(250,189,55)" d="M 603.411 1762.82 C 605.879 1763.07 607.325 1763.24 609.402 1764.64 C 611.179 1767.62 611.791 1770.77 612.094 1774.22 C 612.584 1779.79 612.181 1788.83 608.53 1793.07 C 606.197 1792.8 604.696 1792.41 602.61 1791.32 C 599.644 1786.42 599.599 1780.36 600.121 1774.81 L 600.321 1772.87 C 600.708 1768.76 600.616 1766.04 603.411 1762.82 z"/>
<path transform="translate(0,0)" fill="rgb(250,189,55)" d="M 600.385 1304.63 C 602.304 1304.58 604.131 1304.72 606.047 1304.85 C 607.787 1305.85 608.744 1306.5 609.792 1308.28 C 613.376 1314.39 611.687 1327.67 609.545 1334.11 C 606.026 1334.12 604.445 1334.49 601.369 1332.67 C 596.753 1324.68 599.176 1313.42 600.385 1304.63 z"/>
<path transform="translate(0,0)" fill="rgb(250,189,55)" d="M 602.66 1607.5 C 604.339 1607.77 606.009 1608.16 607.674 1608.51 C 609.232 1609.76 609.946 1610.53 610.721 1612.44 C 613.458 1619.18 612.548 1631.83 609.586 1638.29 C 607.353 1638.22 605.329 1638.3 603.314 1637.18 C 600.656 1635.72 599.927 1631.64 599.467 1628.93 C 598.443 1622.9 599.165 1612.56 602.66 1607.5 z"/>
<path transform="translate(0,0)" fill="rgb(41,21,72)" d="M 959.478 1662.29 A 43.7433 43.7433 0 0 1 978.429 1665.74 A 35.1685 35.1685 0 0 1 997.423 1686.01 C 1001.02 1695.86 999.992 1706.79 995.264 1716.09 C 989.417 1727.59 980.295 1732.61 968.526 1736.26 C 958.598 1736.3 950.546 1735.36 942.026 1729.63 C 933.416 1723.85 927.096 1714.66 925.468 1704.35 C 923.953 1694.75 926.194 1684.44 932.067 1676.64 C 938.966 1667.47 948.5 1663.7 959.478 1662.29 z"/>
<path transform="translate(0,0)" fill="rgb(245,142,39)" d="M 958.695 1669.06 C 963.899 1668.82 968.541 1669.25 973.41 1671.24 C 980.816 1674.25 986.829 1679.99 989.864 1687.43 A 29.554 29.554 0 0 1 989.091 1711.2 C 984.73 1720.4 977.573 1725.1 968.188 1728.21 C 962.078 1728.38 956.81 1728.14 951.146 1725.57 C 943.377 1722.05 937.083 1715.54 934.335 1707.4 A 27.1985 27.1985 0 0 1 936.307 1685.52 C 941.176 1676.54 949.215 1671.91 958.695 1669.06 z"/>
<path transform="translate(0,0)" fill="rgb(41,21,72)" d="M 955.029 1801.26 C 963.285 1800.42 970.582 1800.38 978.326 1803.81 C 987.52 1807.88 994.267 1815.83 997.584 1825.25 C 1001.03 1835.04 1000.74 1845.98 995.86 1855.24 C 990.16 1866.04 980.747 1871.69 969.428 1875.13 C 963.15 1876.08 956.483 1875.34 950.476 1873.33 A 36.6514 36.6514 0 0 1 928.448 1853.44 A 35.4274 35.4274 0 0 1 927.514 1826.13 C 932.409 1813.31 943.084 1806.51 955.029 1801.26 z"/>
<path transform="translate(0,0)" fill="rgb(245,142,39)" d="M 958.52 1808.22 C 964.397 1807.75 970.335 1807.48 975.825 1809.93 C 982.997 1813.12 988.191 1819.2 990.805 1826.54 C 993.553 1834.27 993.41 1842.69 989.78 1850.1 C 985.321 1859.21 977.944 1863.94 968.651 1867.15 C 962.372 1867.65 956.852 1867.39 951.016 1864.76 A 29.7397 29.7397 0 0 1 934.755 1846.5 C 932.369 1839.12 932.859 1830.86 936.553 1823.99 C 941.409 1814.95 949.234 1811.22 958.52 1808.22 z"/>
<path transform="translate(0,0)" fill="rgb(26,152,174)" d="M 1352.71 290.078 L 1354.09 290.798 C 1369.58 298.836 1386.45 304.374 1402.31 311.7 A 814.394 814.394 0 0 1 1487.4 358.195 C 1658.56 464.9 1779.45 637.439 1840.98 827.754 C 1868.83 913.926 1880.1 1007.42 1877.85 1097.76 C 1877.21 1123.39 1874.33 1148.69 1872.83 1174.22 A 3892.32 3892.32 0 0 0 1790.35 1174.33 C 1786.03 1174.87 1782.39 1174.49 1778.11 1173.79 A 834.474 834.474 0 0 1 1731.1 1174.59 L 1730.1 931.37 C 1729.92 888.513 1728.17 845.593 1730.09 802.757 C 1729.78 795.025 1729.79 787.261 1729.67 779.523 C 1728.74 756.919 1725.26 735.75 1712.86 716.335 C 1697.4 692.124 1674.73 679.971 1647.3 673.948 C 1646.78 654.58 1647.01 635.129 1646.88 615.749 C 1652.4 612.877 1656.92 609.916 1661.02 605.103 C 1662.78 603.043 1663.08 601.398 1662.91 598.711 C 1659.77 591.962 1649.99 591.942 1647.62 587.179 C 1644.01 579.929 1647.86 576.582 1639.8 570.031 C 1637.41 569.504 1636.34 569.051 1634.07 570.402 C 1629.91 572.887 1626.65 578.369 1624.97 582.733 C 1624.28 584.54 1623.75 586.231 1622.61 587.818 C 1622.35 588.181 1622.07 588.53 1621.8 588.887 C 1617.57 590.918 1612.37 592.98 1610.99 597.971 C 1610.27 600.568 1611.17 603.684 1611.74 606.254 A 365.312 365.312 0 0 1 1622.35 613.856 C 1621.62 630.918 1621.87 648.043 1621.87 665.119 C 1621.95 668.279 1622.44 671.022 1621.02 673.913 C 1615.35 675.656 1609.18 676.787 1603.69 678.943 C 1583 687.072 1564.32 703.561 1553.96 723.214 C 1545.64 739.017 1542.13 756.501 1541.65 774.25 C 1539.16 778.839 1540.68 846.96 1540.68 858.573 C 1500.16 829.38 1460.54 798.606 1420.55 768.654 C 1412.84 762.876 1404.25 758.442 1396.6 752.572 C 1399.12 747.398 1401.65 742.21 1403.78 736.858 C 1418.52 699.746 1416.18 661.624 1400.37 625.396 C 1391.43 610.883 1378.99 601.077 1363.07 595.238 C 1376.73 545.88 1393.07 456.449 1384.25 407.472 L 1382.78 402.982 C 1367.18 368.363 1357.59 347.353 1324.59 325.611 C 1335.06 314.393 1344.09 302.756 1352.71 290.078 z"/>
<path transform="translate(0,0)" fill="rgb(253,253,253)" d="M 1611.74 606.254 C 1611.5 606.19 1611.25 606.166 1611.03 606.061 C 1607.44 604.365 1602.79 600.31 1601.36 596.529 C 1600.39 593.954 1600.53 590.173 1602.11 587.785 C 1603.66 585.446 1605.43 584.244 1608.16 583.655 C 1613.46 582.512 1617.91 585.83 1621.8 588.887 C 1617.57 590.918 1612.37 592.98 1610.99 597.971 C 1610.27 600.568 1611.17 603.684 1611.74 606.254 z"/>
<path transform="translate(0,0)" fill="rgb(253,253,253)" d="M 1729.67 779.523 C 1733.04 781.048 1736.43 782.495 1739.59 784.413 C 1743.04 791.778 1750.08 804.205 1746.12 812.516 C 1745.06 814.741 1744.57 815.046 1742.46 815.959 C 1737.75 815.066 1735.63 812.023 1733.13 808.247 C 1731.95 806.477 1731.02 804.664 1730.09 802.757 C 1729.78 795.025 1729.79 787.261 1729.67 779.523 z"/>
<path transform="translate(0,0)" fill="rgb(253,253,253)" d="M 1775.99 915.687 C 1779.06 915.538 1781.73 915.247 1784.24 917.42 C 1789.28 921.778 1790.49 931.422 1790.65 937.659 C 1790.81 944.34 1791.08 946.861 1786.39 951.833 C 1783.84 951.628 1781.76 951.403 1779.79 949.585 C 1775.47 945.589 1773.51 936.439 1772.88 930.859 C 1772.16 924.482 1771.76 920.943 1775.99 915.687 z"/>
<path transform="translate(0,0)" fill="rgb(253,253,253)" d="M 1757.04 843.391 C 1759.35 844.039 1761.15 844.674 1762.99 846.335 C 1769.43 852.125 1772.26 864.184 1772.28 872.514 C 1772.29 876.021 1770.43 877.897 1768.11 880.237 C 1765.21 880.325 1762.36 880.42 1760.23 878.187 C 1754.55 872.246 1751.68 859.693 1752.12 851.775 C 1752.34 847.638 1754.14 845.931 1757.04 843.391 z"/>
<path transform="translate(0,0)" fill="rgb(253,253,253)" d="M 1778.11 1173.79 C 1775.93 1165.78 1776.3 1150.84 1780.42 1143.47 C 1781.93 1140.78 1783.68 1139.4 1786.6 1138.37 C 1789.16 1138.68 1789.89 1138.75 1791.67 1140.87 C 1797.25 1147.54 1792.82 1164.36 1790.98 1171.94 C 1790.79 1172.74 1790.56 1173.53 1790.35 1174.33 C 1786.03 1174.87 1782.39 1174.49 1778.11 1173.79 z"/>
<path transform="translate(0,0)" fill="rgb(253,253,253)" d="M 1786.42 1068.79 C 1789.47 1068.78 1792.63 1068.44 1795.03 1070.7 C 1798.36 1073.86 1799.75 1079.54 1799.91 1083.99 C 1800.16 1090.85 1799.32 1099.5 1794.39 1104.54 C 1790.67 1105.06 1788.51 1105.42 1785.05 1103.85 C 1782.26 1100.58 1781.34 1096.95 1781.02 1092.69 C 1780.49 1085.48 1781.59 1074.3 1786.42 1068.79 z"/>
<path transform="translate(0,0)" fill="rgb(253,253,253)" d="M 1382.78 402.982 C 1383.69 399.27 1384.21 395.545 1386.85 392.636 C 1390.78 391.474 1395.12 394.31 1398.56 396.205 C 1405.1 399.81 1416.01 406.007 1417.78 413.73 C 1418.14 415.307 1417.64 415.886 1417.1 417.321 C 1414.25 419.659 1410.78 420.694 1407.09 420.387 C 1400.13 419.809 1389.56 411.859 1384.25 407.472 L 1382.78 402.982 z"/>
<path transform="translate(0,0)" fill="rgb(253,253,253)" d="M 1784.98 988.783 C 1787.13 988.535 1790.47 988.397 1792.28 989.613 C 1796.72 992.603 1798.21 999.864 1798.81 1004.84 C 1799.77 1012.76 1800.31 1022.49 1795.21 1029 C 1794.93 1029.09 1794.66 1029.21 1794.38 1029.28 C 1791.78 1030.02 1788.98 1030.21 1786.77 1028.4 C 1784.15 1026.26 1783.25 1021.41 1782.73 1018.23 C 1781.35 1009.81 1780.04 995.987 1784.98 988.783 z"/>
<path transform="translate(0,0)" fill="rgb(253,253,253)" d="M 1506.76 477.74 C 1509.34 477.861 1510.58 478.409 1512.66 479.91 C 1516.96 482.998 1521.42 485.95 1525.4 489.447 C 1528.72 492.366 1533.63 497.397 1533.33 502.233 C 1533.08 506.38 1530 508.497 1526.9 510.6 C 1519.37 508.48 1508.75 500.384 1503.71 494.293 C 1501.14 491.197 1499.9 488.867 1500.26 484.71 C 1501.87 481.309 1503.74 479.914 1506.76 477.74 z"/>
<path transform="translate(0,0)" fill="rgb(253,253,253)" d="M 1560.37 525.668 C 1560.87 525.753 1561.38 525.797 1561.88 525.921 C 1568.56 527.599 1579.9 539.966 1583.04 546.146 C 1584.44 548.91 1585.24 551.867 1584.03 554.884 C 1582.8 557.968 1580.05 559.027 1577.28 560.381 C 1571.29 558.482 1564.32 551.458 1559.87 546.949 C 1556.87 543.899 1552.42 538.44 1553.12 533.811 C 1553.73 529.807 1557.3 527.691 1560.37 525.668 z"/>
<path transform="translate(0,0)" fill="rgb(253,253,253)" d="M 1445.34 433.023 C 1445.63 432.992 1445.92 432.957 1446.21 432.93 C 1454.28 432.175 1463.08 438.042 1468.98 443.237 C 1472.91 446.701 1476.04 450.474 1476.34 455.845 C 1475.29 459.13 1473.48 460.627 1471.02 462.861 C 1467.35 463.286 1464.75 461.271 1461.82 459.384 C 1455.79 455.5 1441.64 447.717 1440.08 440.536 C 1440.96 437.268 1443.08 435.395 1445.34 433.023 z"/>
<path transform="translate(0,0)" fill="rgb(36,171,185)" d="M 1400.37 625.396 C 1411.35 618.837 1421.38 610.79 1431.87 603.49 C 1444.21 594.905 1456.87 586.794 1469.06 578.004 C 1479.32 570.61 1489.55 561.901 1500.66 555.902 C 1532.29 579.236 1601.87 632.592 1621.87 665.119 C 1621.95 668.279 1622.44 671.022 1621.02 673.913 C 1615.35 675.656 1609.18 676.787 1603.69 678.943 C 1583 687.072 1564.32 703.561 1553.96 723.214 C 1545.64 739.017 1542.13 756.501 1541.65 774.25 C 1539.16 778.839 1540.68 846.96 1540.68 858.573 C 1500.16 829.38 1460.54 798.606 1420.55 768.654 C 1412.84 762.876 1404.25 758.442 1396.6 752.572 C 1399.12 747.398 1401.65 742.21 1403.78 736.858 C 1418.52 699.746 1416.18 661.624 1400.37 625.396 z"/>
<path transform="translate(0,0)" fill="rgb(72,65,115)" d="M 1383.12 1226.16 C 1401.35 1233.65 1420.69 1240.06 1439.64 1245.44 C 1443.59 1246.64 1447.15 1247.6 1450.52 1250.1 C 1453.69 1251.03 1456.7 1251.98 1459.72 1253.32 C 1455.88 1265.42 1458.01 1341.95 1458 1361.45 L 1458.02 1630.35 L 1457.93 1741.41 C 1457.92 1761.15 1456.89 1781.58 1458.3 1801.25 C 1448.98 1809.69 1417.8 1824.14 1405.56 1830.2 A 867.146 867.146 0 0 1 1031.04 1918.16 C 1031.61 1872.91 1030.83 1827.65 1031.18 1782.4 A 3454.06 3454.06 0 0 0 1031.23 1698.11 C 1031.12 1682.86 1031.47 1667.45 1030.49 1652.23 C 1042.63 1624.13 1083.07 1591.54 1105.94 1571.06 C 1120.09 1558.38 1133.87 1545.26 1148.25 1532.85 C 1161.83 1521.13 1175.99 1510.09 1189.67 1498.49 C 1222.47 1470.64 1254.12 1441.28 1286.65 1413.08 A 1870.78 1870.78 0 0 1 1320.71 1384.34 C 1326.32 1379.75 1332.45 1375.5 1337.76 1370.59 C 1340.23 1368.3 1341.38 1366.37 1342.13 1363.12 C 1342.19 1362.9 1342.24 1362.68 1342.3 1362.46 C 1342.81 1360.54 1343.56 1358.4 1343.71 1356.42 C 1344.44 1346.63 1324.45 1333.06 1317.97 1326.36 C 1330.19 1325.64 1358.06 1329.64 1367.61 1323.31 C 1370.64 1321.3 1371.83 1315.57 1372.61 1312.23 C 1375.03 1301.79 1375.38 1290.15 1376.56 1279.47 A 2486.45 2486.45 0 0 1 1383.12 1226.16 z"/>
<path transform="translate(0,0)" fill="rgb(250,189,55)" d="M 1439.64 1245.44 C 1443.59 1246.64 1447.15 1247.6 1450.52 1250.1 C 1450.36 1251.15 1450.26 1252 1449.95 1253.04 C 1449.19 1255.54 1448.33 1256.62 1446.15 1257.98 C 1443.74 1257.84 1442.59 1257.38 1441.03 1255.39 C 1438.81 1252.54 1439.46 1248.82 1439.64 1245.44 z"/>
<path transform="translate(0,0)" fill="rgb(250,189,55)" d="M 1442.54 1309.37 L 1446.07 1310.56 C 1448.16 1312.48 1448.71 1314.2 1449.32 1316.88 C 1450.51 1322.16 1450.51 1330.3 1447.58 1334.97 C 1445.46 1334.94 1444.06 1334.84 1442.11 1333.99 C 1439.31 1330.68 1438.82 1325.54 1439.23 1321.34 C 1439.27 1320.86 1439.34 1320.38 1439.38 1319.9 C 1439.79 1315.69 1439.67 1312.67 1442.54 1309.37 z"/>
<path transform="translate(0,0)" fill="rgb(250,189,55)" d="M 1440.16 1379.55 C 1443.82 1380.02 1445.39 1380.02 1448.19 1382.52 C 1451 1389.71 1449.48 1396.94 1448.79 1404.44 C 1447.73 1404.63 1446.05 1405.07 1444.93 1404.99 C 1443.66 1404.9 1442.23 1404.72 1441.39 1403.68 C 1437.48 1398.76 1439.85 1385.49 1440.16 1379.55 z"/>
<path transform="translate(0,0)" fill="rgb(250,189,55)" d="M 1443.92 1611.43 L 1447.41 1613.04 C 1449.03 1615.29 1449.37 1617.49 1449.74 1620.18 C 1450.45 1625.29 1450.61 1633.73 1447.44 1637.91 C 1445.16 1637.51 1443.63 1637.08 1441.62 1635.92 C 1439.98 1633.05 1439.05 1630.02 1438.97 1626.69 C 1438.84 1620.97 1439.92 1615.58 1443.92 1611.43 z"/>
<path transform="translate(0,0)" fill="rgb(250,189,55)" d="M 1441.05 1685.95 C 1442.47 1685.89 1444.29 1685.65 1445.68 1685.92 C 1447.04 1686.19 1448.04 1686.56 1448.73 1687.77 C 1452.27 1693.93 1450.33 1704.93 1449.19 1711.69 C 1447.68 1711.6 1445.81 1711.63 1444.37 1711.2 C 1442.88 1710.75 1442.01 1709.78 1441.27 1708.44 C 1438.11 1702.66 1439.05 1692.04 1441.05 1685.95 z"/>
<path transform="translate(0,0)" fill="rgb(250,189,55)" d="M 1439.32 1456.06 C 1443.17 1455.75 1445.62 1455.28 1448.76 1457.84 C 1451.62 1464.21 1449.87 1472.19 1449.33 1479 C 1446.36 1479.31 1443.98 1479.85 1441.25 1478.3 C 1436.84 1472.73 1438.9 1462.84 1439.32 1456.06 z"/>
<path transform="translate(0,0)" fill="rgb(250,189,55)" d="M 1440.59 1763.93 C 1443.31 1763.84 1445.6 1763.54 1448.08 1764.91 C 1452.75 1771.06 1450.14 1782.59 1449.61 1789.92 C 1446.61 1790.06 1444.42 1790.41 1441.82 1788.62 C 1437.16 1781.95 1439.7 1771.59 1440.59 1763.93 z"/>
<path transform="translate(0,0)" fill="rgb(250,189,55)" d="M 1439.62 1532.87 C 1441.32 1532.73 1443.49 1532.36 1445.16 1532.61 C 1446.75 1532.86 1447.67 1533.28 1448.52 1534.62 C 1452.28 1540.57 1450.35 1551.8 1449.25 1558.47 C 1446.31 1558.76 1444.43 1559.06 1441.73 1557.53 C 1436.84 1551.77 1439.18 1540.11 1439.62 1532.87 z"/>
<path transform="translate(0,0)" fill="rgb(41,21,72)" d="M 1086.08 1800.42 C 1093.53 1800.96 1100.33 1802.31 1106.82 1806.26 A 35.9555 35.9555 0 0 1 1123.35 1829.48 C 1125.42 1839.08 1123.95 1849.34 1118.57 1857.64 C 1111.84 1868.03 1101.64 1872.48 1090.03 1875.02 C 1080.07 1875.23 1071.28 1874.59 1063.13 1868.05 C 1055.11 1861.61 1050.57 1851.43 1049.89 1841.29 C 1049.19 1830.89 1052.45 1820.18 1059.43 1812.35 C 1066.79 1804.09 1075.45 1801.29 1086.08 1800.42 z"/>
<path transform="translate(0,0)" fill="rgb(245,142,39)" d="M 1082.83 1808.21 C 1088.52 1807.83 1094.19 1808.35 1099.44 1810.68 A 28.5859 28.5859 0 0 1 1114.8 1827.05 A 29.4474 29.4474 0 0 1 1113.75 1850.03 C 1109.3 1859.56 1101.74 1864.06 1092.24 1867.38 C 1084.6 1868.01 1077.84 1867.31 1071.21 1863.18 A 30.3585 30.3585 0 0 1 1057.72 1843.91 C 1056.02 1836.27 1057.22 1827.92 1061.56 1821.33 C 1066.76 1813.46 1073.9 1810.19 1082.83 1808.21 z"/>
<path transform="translate(0,0)" fill="rgb(41,21,72)" d="M 1084.33 1662.23 C 1092.13 1661.92 1101.19 1664.21 1107.74 1668.37 A 36.7089 36.7089 0 0 1 1123.84 1691.44 A 35.9995 35.9995 0 0 1 1118.59 1719.12 C 1112.19 1728.88 1103.44 1733.45 1092.43 1735.95 C 1081.92 1736.18 1072.32 1735.05 1063.41 1728.98 C 1055.9 1723.87 1051.11 1716.29 1049.56 1707.36 C 1047.8 1697.19 1049.82 1685.98 1055.98 1677.59 C 1062.95 1668.1 1073.04 1663.92 1084.33 1662.23 z"/>
<path transform="translate(0,0)" fill="rgb(245,142,39)" d="M 1084.18 1669.09 C 1090.2 1668.77 1097 1670.84 1102.14 1673.89 A 28.9732 28.9732 0 0 1 1115.66 1692.48 A 29.6179 29.6179 0 0 1 1111.73 1714.9 C 1106.41 1723.06 1099.07 1725.99 1090 1728 C 1083.24 1728.19 1077.05 1727.75 1071 1724.42 A 27.5616 27.5616 0 0 1 1057.25 1706.49 A 29.1659 29.1659 0 0 1 1060.84 1684.25 C 1066.33 1675.36 1074.45 1671.51 1084.18 1669.09 z"/>
<path transform="translate(0,0)" fill="rgb(32,47,94)" d="M 1342.13 1363.12 C 1343.93 1369.81 1353.88 1375.47 1357.68 1381.96 C 1348.23 1394.73 1333.79 1404.44 1321.78 1414.77 L 1241.33 1483.21 C 1180.98 1534.58 1122.93 1588.33 1060.38 1637.09 C 1054.11 1641.97 1044.52 1651.06 1036.53 1652.18 C 1034.57 1652.45 1032.45 1652.37 1030.49 1652.23 C 1042.63 1624.13 1083.07 1591.54 1105.94 1571.06 C 1120.09 1558.38 1133.87 1545.26 1148.25 1532.85 C 1161.83 1521.13 1175.99 1510.09 1189.67 1498.49 C 1222.47 1470.64 1254.12 1441.28 1286.65 1413.08 A 1870.78 1870.78 0 0 1 1320.71 1384.34 C 1326.32 1379.75 1332.45 1375.5 1337.76 1370.59 C 1340.23 1368.3 1341.38 1366.37 1342.13 1363.12 z"/>
<path transform="translate(0,0)" fill="rgb(253,253,253)" d="M 1265.56 1533.3 C 1289.15 1530.64 1312.19 1536.02 1331.51 1549.99 C 1351.53 1564.47 1366.85 1588.59 1370.6 1613.1 C 1374.6 1639.16 1367.56 1665.13 1351.91 1686.2 C 1335.92 1707.72 1314.61 1720.97 1288.08 1724.87 A 95.6641 95.6641 0 0 1 1220.49 1708.97 C 1199.89 1694.84 1185 1673.52 1180.6 1648.8 C 1176.09 1623.4 1181.1 1595.24 1196.12 1574.05 C 1213.48 1549.57 1236.53 1538.15 1265.56 1533.3 z"/>
<path transform="translate(0,0)" fill="rgb(245,142,39)" d="M 1319.27 1569.42 C 1331.78 1577.8 1338.94 1590.16 1345.23 1603.46 L 1318.61 1610.06 C 1313.41 1611.63 1308.06 1612.65 1302.75 1613.8 C 1300.57 1611.3 1298.78 1608.43 1296.92 1605.69 C 1303.95 1593.3 1311.53 1581.38 1319.27 1569.42 z"/>
<path transform="translate(0,0)" fill="rgb(245,142,39)" d="M 1243.1 1563.74 C 1243.24 1563.8 1243.4 1563.83 1243.53 1563.92 C 1245.73 1565.39 1253.92 1596.57 1255.33 1601.28 C 1253.04 1605.93 1250.12 1610.38 1247.48 1614.84 L 1230.71 1608.01 A 749.521 749.521 0 0 1 1207.77 1599.29 C 1217.09 1583.72 1227.74 1573.37 1243.1 1563.74 z"/>
<path transform="translate(0,0)" fill="rgb(245,142,39)" d="M 1256.81 1646.78 C 1260.39 1647.03 1262.51 1650 1264.88 1652.4 C 1261.38 1668.22 1259.75 1684.47 1256.98 1700.44 C 1249.74 1697.62 1242.87 1694.64 1236.05 1690.91 C 1229.31 1686.44 1224.04 1681.74 1219.16 1675.28 C 1230.83 1664.93 1244.28 1656.11 1256.81 1646.78 z"/>
<path transform="translate(0,0)" fill="rgb(245,142,39)" d="M 1269.08 1556.35 C 1282.57 1554.48 1295.69 1556.75 1308.13 1561.97 C 1301.63 1571.96 1295.2 1581.78 1289.97 1592.52 C 1289.41 1593.89 1289.05 1594.91 1287.93 1595.94 C 1285.43 1598.25 1271.96 1595.3 1267.98 1594.87 C 1264.32 1582.72 1259.9 1570.84 1255.56 1558.91 C 1260.02 1557.79 1264.54 1557.09 1269.08 1556.35 z"/>
<path transform="translate(0,0)" fill="rgb(245,142,39)" d="M 1203.24 1613.9 C 1217.23 1615.87 1231.14 1621.87 1244.97 1625.19 C 1247.49 1629.09 1249.33 1633.28 1251.29 1637.47 C 1245.49 1640.42 1240.04 1643.97 1234.53 1647.42 C 1226.53 1652.74 1218.95 1658.89 1211.13 1664.5 C 1202 1647.89 1201.22 1632.38 1203.24 1613.9 z"/>
<path transform="translate(0,0)" fill="rgb(245,142,39)" d="M 1343.96 1617.26 C 1346.35 1617.01 1346.92 1616.88 1349.09 1617.85 C 1349.63 1619.11 1350.14 1620.29 1350.35 1621.66 C 1352.78 1638.28 1343.2 1658.23 1334.26 1671.65 C 1329.69 1666.51 1324.69 1662.19 1319.42 1657.77 L 1299.96 1640.34 C 1301.54 1635.47 1302.47 1630.44 1303.53 1625.44 C 1317.09 1623.2 1330.52 1620.14 1343.96 1617.26 z"/>
<path transform="translate(0,0)" fill="rgb(245,142,39)" d="M 1290.2 1649.12 C 1293.72 1649.26 1320.17 1677.7 1324.71 1682.31 C 1317.62 1688.65 1311.37 1693.4 1302.53 1697.07 C 1291.85 1700.71 1282.27 1702.03 1271.02 1702.86 L 1277.23 1652.59 L 1290.2 1649.12 z"/>
<path transform="translate(0,0)" fill="rgb(250,194,152)" d="M 775.29 848.16 C 774.094 823.275 770.989 798.342 769.175 773.471 A 1522.52 1522.52 0 0 1 765.029 657.199 A 6840.48 6840.48 0 0 1 766.273 544.272 C 766.693 525.301 765.179 503.154 769.966 484.816 C 773.25 472.236 780.508 461.104 788.982 451.387 C 804.484 433.611 825.99 424.31 842.616 407.703 C 847.582 409.255 852.367 411.457 857.165 413.463 C 961.44 457.964 1097.12 459.767 1202.37 417.275 A 177.375 177.375 0 0 0 1204.88 416.239 C 1232.26 430.446 1257.91 446.434 1276.34 471.795 C 1279.78 476.526 1283.93 482.443 1285.64 488.06 C 1290.45 503.872 1287.58 536.861 1287.66 554.44 C 1287.83 589.919 1288.8 625.586 1287.67 661.048 C 1286.85 687.04 1279.37 841.556 1271.75 855.354 C 1258.9 878.605 1239.13 900.343 1221.72 920.319 A 5766.69 5766.69 0 0 1 1172.32 976.345 C 1160.85 989.211 1149.8 1004.56 1136.59 1015.54 C 1128.78 1022.03 1118.7 1026.7 1108.93 1029.36 C 1097.29 1032.53 1072.91 1036.62 1062.01 1030.54 C 1057.83 1028.21 1055.31 1024.39 1054.16 1019.79 C 1050.65 1005.74 1057.52 985.276 1042.7 975.967 C 1034.83 971.015 1022.57 970.732 1013.76 972.854 C 1008.43 974.139 1003.99 976.912 1001.19 981.698 C 992.931 995.781 1004.11 1026.04 984.884 1031.49 C 968.38 1036.17 932.679 1023.74 918.064 1015.2 C 890.445 991.039 868.115 959.144 844.517 931.155 C 821.39 903.724 795.969 877.509 775.29 848.16 z"/>
<path transform="translate(0,0)" fill="rgb(41,21,72)" d="M 980.257 924.834 C 996.003 928.815 1011.11 932.455 1027.51 931.88 C 1035.16 931.612 1061.79 925.5 1066.13 927.915 C 1065.37 930.637 1064 931.041 1061.84 932.696 C 1049.36 938.67 1038.07 942.859 1024.05 942.535 C 1012.23 942.261 990.09 939.5 981.815 930.236 C 979.838 928.023 980.09 927.652 980.257 924.834 z"/>
<path transform="translate(0,0)" fill="rgb(245,124,104)" d="M 1016.75 663.938 L 1017.36 664.698 C 1018.36 671.828 1017.83 679.579 1017.83 686.805 C 1017.83 714.745 1016.29 738.272 1009.26 765.518 C 1019.2 768.145 1029.28 769.91 1039.12 773.017 C 1052.94 777.387 1065.93 783.951 1078.92 790.321 C 1068.46 790 1057.97 790.129 1047.5 790.101 C 1023.72 790.285 999.905 789.121 976.126 788.699 A 3622.58 3622.58 0 0 0 1016.75 663.938 z"/>
<path transform="translate(0,0)" fill="rgb(41,21,72)" d="M 921.412 657.085 C 921.057 662.648 920.155 668.088 917.697 673.144 C 914.174 680.392 908.775 685.676 901.091 688.307 A 33.6868 33.6868 0 0 1 875.509 686.66 A 32.7106 32.7106 0 0 1 859.017 667.421 C 856.444 659.296 856.96 650.627 861.269 643.195 C 865.969 635.09 875.449 627.94 884.535 625.67 C 893.65 623.394 901.167 625.739 908.935 630.523 C 914.616 632.35 918.782 634.067 921.717 639.545 C 924.196 644.171 923.882 649.995 922.317 654.87 C 921.926 656.087 921.884 656.106 921.412 657.085 z"/>
<path transform="translate(0,0)" fill="rgb(253,253,253)" d="M 921.412 657.085 C 918.132 658.367 914.484 659.821 910.994 660.31 C 906.672 660.917 901.812 659.738 898.344 657.053 C 894.927 654.408 892.867 650.263 892.617 645.97 A 14.6989 14.6989 0 0 1 896.33 635.227 C 900.014 631.163 903.668 630.693 908.935 630.523 C 914.616 632.35 918.782 634.067 921.717 639.545 C 924.196 644.171 923.882 649.995 922.317 654.87 C 921.926 656.087 921.884 656.106 921.412 657.085 z"/>
<path transform="translate(0,0)" fill="rgb(41,21,72)" d="M 1197.27 656.433 C 1197.08 662.872 1196.33 668.644 1193.81 674.671 C 1190.72 682.026 1185.56 687.542 1178.03 690.375 A 34.524 34.524 0 0 1 1150.59 688.947 A 35.5274 35.5274 0 0 1 1132.43 666.96 C 1130.31 659.275 1130.88 651.031 1134.9 644.057 C 1139.22 636.555 1148.99 628.997 1157.62 627.108 C 1167.54 624.941 1176.79 629.506 1184.95 634.555 C 1189.52 635.955 1192.99 638.068 1195.24 642.443 C 1197.53 646.887 1197.56 651.569 1197.27 656.433 z"/>
<path transform="translate(0,0)" fill="rgb(253,253,253)" d="M 1184.95 634.555 C 1189.52 635.955 1192.99 638.068 1195.24 642.443 C 1197.53 646.887 1197.56 651.569 1197.27 656.433 C 1195.32 658.559 1193.1 660.816 1190.47 662.086 C 1186.52 663.997 1181.96 664.356 1177.87 662.625 A 14.4343 14.4343 0 0 1 1169.87 654.278 C 1168.56 650.713 1168.77 646.818 1170.56 643.45 C 1173.75 637.437 1178.85 636.186 1184.95 634.555 z"/>
<path transform="translate(0,0)" fill="rgb(41,21,72)" d="M 1150.73 554.463 C 1171.67 553.765 1211.96 554.631 1229.61 565.182 C 1243.48 573.471 1246.04 591.577 1249.83 606.025 A 209.193 209.193 0 0 0 1205.25 595.372 C 1183.32 591.257 1156.23 591.399 1133.76 590.868 C 1125.17 590.665 1116.04 591.076 1107.53 590.013 C 1104.77 589.668 1101.52 589.186 1099.21 587.5 C 1096.22 585.309 1095.33 581.714 1094.91 578.239 C 1094.26 572.97 1094 565.166 1098.11 561.038 C 1105.36 553.74 1140.78 554.776 1150.73 554.463 z"/>
<path transform="translate(0,0)" fill="rgb(41,21,72)" d="M 836.95 558.762 C 854.774 554.355 934.371 550.417 948.506 558.506 C 951.949 560.477 953.8 564.419 954.59 568.161 C 955.655 573.199 955.339 579.619 952.242 583.927 C 949.954 587.109 947.381 588.725 943.476 589.176 C 931.576 590.552 919.019 589.844 907.021 590.256 A 599.706 599.706 0 0 0 838.74 596.404 C 825.687 598.363 813.297 601.349 800.743 605.434 C 801.98 595.163 802.675 583.206 808.347 574.271 C 815.086 563.653 825.604 561.551 836.95 558.762 z"/>
<path transform="translate(0,0)" fill="rgb(32,47,94)" d="M 1052.79 822.299 C 1081.07 821.247 1103.06 837.747 1127.38 849.327 C 1141.81 856.199 1161.05 864.409 1177.02 858.213 C 1190.27 853.068 1196.17 841.337 1201.84 829.272 C 1200.92 849.368 1196.7 863.358 1182.65 878.302 C 1172.57 887.537 1159.43 893.328 1146.21 896.365 C 1114.92 903.554 1074.74 896.391 1047.61 879.272 C 1038.36 873.432 1029.77 865.103 1027.61 853.957 C 1026.34 847.391 1027.21 839.666 1031.16 834.124 C 1036.19 827.051 1044.53 823.689 1052.79 822.299 z"/>
<path transform="translate(0,0)" fill="rgb(32,47,94)" d="M 867.471 849.835 C 867.776 850.09 868.078 850.349 868.386 850.602 A 37.1327 37.1327 0 0 0 895.767 859.038 C 926.398 856.03 985.384 805.935 1013.78 827.071 C 1018.79 830.802 1021.34 836.491 1021.99 842.601 C 1022.98 851.811 1019.11 860.102 1013.25 866.992 C 994.863 888.589 960.392 896.928 933.335 898.567 C 927.095 898.945 921.003 898.895 914.768 898.502 C 897.719 895.603 881.046 892.489 867.775 880.309 C 852.188 866.003 849.797 843.756 848.656 823.87 C 855.38 832.002 861.224 841.303 867.471 849.835 z"/>
<path transform="translate(0,0)" fill="rgb(245,124,104)" d="M 775.29 848.16 C 774.094 823.275 770.989 798.342 769.175 773.471 A 1522.52 1522.52 0 0 1 765.029 657.199 A 6840.48 6840.48 0 0 1 766.273 544.272 C 766.693 525.301 765.179 503.154 769.966 484.816 C 773.25 472.236 780.508 461.104 788.982 451.387 C 804.484 433.611 825.99 424.31 842.616 407.703 C 847.582 409.255 852.367 411.457 857.165 413.463 C 837.143 465.188 834.092 503.889 836.95 558.762 C 825.604 561.551 815.086 563.653 808.347 574.271 C 802.675 583.206 801.98 595.163 800.743 605.434 C 813.297 601.349 825.687 598.363 838.74 596.404 C 847.249 667.38 852.476 738.734 859 809.915 C 859.727 817.84 861.012 824.957 863.073 832.639 C 864.519 838.032 867.195 844.304 867.471 849.835 C 861.224 841.303 855.38 832.002 848.656 823.87 C 849.797 843.756 852.188 866.003 867.775 880.309 C 881.046 892.489 897.719 895.603 914.768 898.502 C 913.068 903.748 915.664 1002.71 918.064 1015.2 C 890.445 991.039 868.115 959.144 844.517 931.155 C 821.39 903.724 795.969 877.509 775.29 848.16 z"/>
<path transform="translate(0,0)" fill="rgb(26,152,174)" d="M 303.229 1525.95 A 839.666 839.666 0 0 1 226.757 1373.95 A 854.56 854.56 0 0 1 245.797 720.897 A 868.067 868.067 0 0 1 581.014 345.025 A 1041.26 1041.26 0 0 1 759.944 259.56 C 754.427 275.452 752.769 292.013 751.114 308.638 C 734.672 312.95 718.163 317.68 703.498 326.54 C 677.867 342.025 665.284 369.551 658.545 397.656 C 648.039 460.07 667.426 542.385 688.189 601.526 L 678.547 605.672 C 655.903 619.352 641.14 636.895 634.531 662.944 C 626.31 695.344 636.579 728.625 653.393 756.476 C 667.286 779.488 686.57 796.962 713.141 803.25 C 724.104 805.845 735.447 806.47 746.669 806.999 C 747.59 822.555 746.99 842.124 751.886 856.9 C 759.174 878.893 823.983 944.467 841.463 969.16 L 841.099 1092.17 A 1218.75 1218.75 0 0 0 811.931 1120.34 C 800.474 1131.59 779.351 1155.42 767.021 1162.61 C 753.924 1170.24 737.487 1174.39 723.28 1179.79 C 702.71 1190.42 674.018 1198.99 651.586 1207.3 C 624.315 1217.39 595.691 1229.73 568.03 1237.78 C 512.696 1261.58 451.914 1277.33 402.998 1313.71 C 328.709 1372.65 315.463 1437.62 303.229 1525.95 z"/>
<path transform="translate(0,0)" fill="rgb(253,253,253)" d="M 633.086 412.654 C 631.871 411.715 630.576 410.741 629.515 409.627 C 627.643 407.662 627.093 405.711 627.384 403.035 C 627.753 399.632 630.797 396.14 633.335 394.079 C 637.251 390.899 644.666 387.512 649.805 388.688 C 652.959 389.41 654.486 391.954 656.164 394.438 C 653.679 401.23 643.359 408.915 636.948 411.691 C 635.691 412.235 634.427 412.431 633.086 412.654 z"/>
<path transform="translate(0,0)" fill="rgb(253,253,253)" d="M 531.279 471.757 C 532.765 472.2 534.45 472.616 535.818 473.349 C 538.201 474.626 538.69 476.069 539.442 478.508 C 537.524 486.898 525.031 495.483 518.864 501.398 C 516.574 500.454 513.273 499.125 511.816 496.973 C 510.432 494.93 509.839 493.12 510.488 490.675 C 512.524 482.999 524.756 475.661 531.279 471.757 z"/>
<path transform="translate(0,0)" fill="rgb(253,253,253)" d="M 259.312 976.569 C 261.343 977.095 263.777 977.731 264.827 979.728 C 268.22 986.178 266.361 1003.66 263.865 1010.36 C 262.726 1013.43 260.313 1013.99 257.604 1015.27 C 255.609 1014.43 253.739 1013.49 252.431 1011.68 C 249.623 1007.78 250.251 997.868 250.987 993.298 C 252.188 985.834 252.909 981.193 259.312 976.569 z"/>
<path transform="translate(0,0)" fill="rgb(253,253,253)" d="M 569.742 454.937 C 566.848 451.923 565.439 450.234 565.139 445.973 C 566.851 441.253 572.596 436.289 576.621 433.24 C 581.23 429.748 586.277 426.56 592.235 427.402 C 595.672 429.145 596.745 431.233 598.609 434.523 C 591.9 443.191 579.934 451.126 569.742 454.937 z"/>
<path transform="translate(0,0)" fill="rgb(253,253,253)" d="M 311.286 765.783 C 313.213 765.833 315.777 766.126 317.462 767.146 C 319.651 768.472 320.788 770.066 321.207 772.579 C 322.56 780.68 314.284 794.625 309.412 800.719 C 306.722 800.787 303.694 800.454 301.612 798.607 C 300.232 797.383 299.638 795.303 299.6 793.506 C 299.425 785.136 305.732 771.816 311.286 765.783 z"/>
<path transform="translate(0,0)" fill="rgb(253,253,253)" d="M 254.406 1128.67 C 256.796 1128.77 258.282 1129.13 260.466 1130.1 C 265.725 1135.4 266.644 1144.25 266.802 1151.38 C 266.928 1157.07 266.912 1159.66 262.821 1163.99 C 259.811 1163.95 257.101 1164.52 254.715 1162.26 C 251.024 1158.76 249.69 1151.31 249.533 1146.48 C 249.304 1139.45 249.352 1134.01 254.406 1128.67 z"/>
<path transform="translate(0,0)" fill="rgb(253,253,253)" d="M 269.177 905.76 C 271.943 905.852 273.478 906.035 276.042 907.261 C 278.761 910.147 278.722 913.903 278.541 917.688 C 278.185 925.14 275.77 935.962 270.233 941.138 C 267.006 941.172 264.298 941.067 262.075 938.433 C 259.444 935.316 259.541 929.027 260.144 925.216 C 261.227 918.363 263.565 910.109 269.177 905.76 z"/>
<path transform="translate(0,0)" fill="rgb(253,253,253)" d="M 340.018 732.25 C 338.664 732.373 336.944 732.639 335.563 732.492 C 332.756 732.194 331.504 731.429 329.65 729.392 C 328.253 725.888 328.566 723.064 329.631 719.516 C 331.664 712.738 337.211 702.918 343.583 699.282 C 346.901 698.614 348.592 699.341 351.574 700.589 C 352.804 703.365 353.881 704.796 352.794 707.869 C 349.849 716.195 343.917 724.217 340.018 732.25 z"/>
<path transform="translate(0,0)" fill="rgb(253,253,253)" d="M 280.804 1270.79 C 283.815 1271.06 285.951 1271.57 288.157 1273.79 C 293.973 1279.64 296.074 1292.68 295.725 1300.57 C 295.538 1304.79 293.574 1305.83 290.698 1308.34 C 288.111 1307.73 286.496 1307.66 284.553 1305.63 C 279.445 1300.28 275.758 1284.81 276.313 1277.53 C 276.565 1274.24 278.608 1272.92 280.804 1270.79 z"/>
<path transform="translate(0,0)" fill="rgb(253,253,253)" d="M 290.521 833.786 C 290.758 833.822 291 833.831 291.231 833.894 C 293.641 834.555 294.866 835.084 296.093 837.411 C 298.13 841.275 296.384 847.966 295.318 851.909 C 293.462 858.775 290.661 867.885 284.257 871.547 C 281.577 870.416 278.842 869.21 277.667 866.385 C 275.41 860.957 277.752 851.953 279.792 846.749 C 282.266 840.438 284.001 836.579 290.521 833.786 z"/>
<path transform="translate(0,0)" fill="rgb(253,253,253)" d="M 261.954 1201.86 C 264.699 1201.59 267.438 1201.24 269.956 1202.69 C 273.975 1205 276.521 1212.57 277.335 1216.9 C 278.719 1224.27 279.572 1229.74 275.214 1235.98 C 272.259 1236.73 270.449 1237.31 267.462 1236.15 C 263.441 1232.88 261.45 1227.8 260.504 1222.78 C 259.185 1215.78 257.83 1207.99 261.954 1201.86 z"/>
<path transform="translate(0,0)" fill="rgb(253,253,253)" d="M 250.202 1052.76 C 252.452 1052.75 255.681 1052.43 257.727 1053.45 C 261.4 1055.29 262.384 1061.44 262.824 1065.02 C 263.835 1073.25 262.852 1084.2 257.542 1090.73 C 254.699 1090.89 253.323 1090.99 250.704 1089.64 C 248.801 1087.6 247.977 1085.97 247.345 1083.23 C 245.632 1075.81 245.925 1059.26 250.202 1052.76 z"/>
<path transform="translate(0,0)" fill="rgb(253,253,253)" d="M 303.023 1341.48 C 305.669 1341.82 307.445 1341.65 309.498 1343.59 C 314.65 1348.47 321.157 1363.55 320.615 1370.98 C 320.384 1374.14 318.79 1375.57 316.63 1377.61 C 316.284 1377.56 315.938 1377.52 315.591 1377.48 C 313.513 1377.24 310.725 1377.17 309.006 1375.85 C 302.75 1371.04 298.35 1356.67 298.592 1349.03 C 298.702 1345.53 300.712 1343.8 303.023 1341.48 z"/>
<path transform="translate(0,0)" fill="rgb(253,253,253)" d="M 459.255 550.236 C 458.034 547.595 456.603 545.147 457.499 542.178 C 459.781 534.62 470.099 524.345 477.126 521.177 C 479.436 520.135 481.201 519.927 483.746 520.174 C 485.93 521.708 486.529 522.027 487.136 524.803 C 487.801 527.841 486.934 531.885 484.926 534.204 C 482.072 537.498 467.758 550.776 464.319 552.731 C 464.021 552.9 463.735 553.086 463.443 553.264 L 459.255 550.236 z"/>
<path transform="translate(0,0)" fill="rgb(253,253,253)" d="M 407.989 604.496 C 407.913 602.793 407.87 601.11 408.091 599.413 C 408.905 593.153 418.451 580.088 423.851 576.698 C 425.961 575.374 428.398 574.62 430.824 575.587 C 434.073 576.881 435.442 579.78 437.027 582.675 C 434.956 589.059 424.079 604.809 418.214 607.437 C 416.032 608.414 413.695 608.671 411.438 607.73 C 409.802 607.047 409.006 605.855 407.989 604.496 z"/>
<path transform="translate(0,0)" fill="rgb(36,171,185)" d="M 794.989 1107.26 C 800.893 1111.3 807.008 1115.1 811.931 1120.34 C 800.474 1131.59 779.351 1155.42 767.021 1162.61 C 753.924 1170.24 737.487 1174.39 723.28 1179.79 C 724.099 1175.92 725.548 1173.28 727.986 1170.16 C 739.62 1155.27 779.484 1118.45 794.989 1107.26 z"/>
<path transform="translate(0,0)" fill="rgb(36,171,185)" d="M 656.164 394.438 C 656.924 395.495 657.669 396.697 658.545 397.656 C 648.039 460.07 667.426 542.385 688.189 601.526 L 678.547 605.672 C 668.304 590.688 644.383 571.064 630.429 557.818 L 544.353 475.682 C 552.334 468.241 561.944 462.592 569.742 454.937 C 579.934 451.126 591.9 443.191 598.609 434.523 C 605.192 433.704 626.128 417.076 633.086 412.654 C 634.427 412.431 635.691 412.235 636.948 411.691 C 643.359 408.915 653.679 401.23 656.164 394.438 z"/>
<path transform="translate(0,0)" fill="rgb(36,171,185)" d="M 309.404 1220.17 C 331.992 1199.1 353.587 1176.97 375.621 1155.33 C 403.037 1128.4 430.626 1101.88 456.907 1073.83 C 503.425 1118.15 547.508 1164.97 593.321 1209.99 C 586.318 1219.56 573.019 1229.36 568.03 1237.78 C 512.696 1261.58 451.914 1277.33 402.998 1313.71 C 393.7 1303.69 382.767 1294.64 372.925 1285.1 C 351.232 1264.06 329.712 1242.55 309.404 1220.17 z"/>
<path transform="translate(0,0)" fill="rgb(36,171,185)" d="M 459.255 550.236 L 463.443 553.264 C 466.431 562.852 583.462 679.256 602.041 699.124 C 554.554 748.309 503.904 794.553 456.549 843.894 C 436.508 822.784 415.583 802.403 394.89 781.926 C 378.33 765.539 360.226 744.023 340.018 732.25 C 343.917 724.217 349.849 716.195 352.794 707.869 C 353.881 704.796 352.804 703.365 351.574 700.589 C 353.309 698.045 363.187 666.891 363.078 663.988 A 60.0696 60.0696 0 0 1 364.483 659.877 C 367.688 651.712 375.705 637.796 383.759 634.197 C 388.608 631.62 396.442 614.508 402.992 609.004 C 404.712 607.558 406.336 606.018 407.989 604.496 C 409.006 605.855 409.802 607.047 411.438 607.73 C 413.695 608.671 416.032 608.414 418.214 607.437 C 424.079 604.809 434.956 589.059 437.027 582.675 C 441.146 578.684 442.805 570.781 445.914 565.759 C 449.483 559.995 455.537 556.068 459.255 550.236 z"/>
<path transform="translate(0,0)" fill="rgb(253,253,253)" d="M 383.759 634.197 C 386.557 635.718 388.414 636.546 389.821 639.59 C 390.778 647.074 386.092 655.773 381.719 661.596 C 379.238 664.9 376.547 667.441 372.821 669.223 C 369.588 669.252 367.338 668.816 365.025 666.364 C 364.402 665.704 363.594 664.641 363.078 663.988 A 60.0696 60.0696 0 0 1 364.483 659.877 C 367.688 651.712 375.705 637.796 383.759 634.197 z"/>
<path transform="translate(0,0)" fill="rgb(36,171,185)" d="M 646.293 815.618 C 648.813 816.028 650.525 817.986 652.293 819.701 C 662.91 830.002 672.906 840.995 683.375 851.456 L 744.534 911.909 C 759.444 926.689 781.192 944.603 793.278 960.81 C 781.611 979.254 759.101 996.741 743.218 1012.24 C 723.457 1031.51 704.36 1051.33 685.099 1071.09 C 673.149 1083.36 660.583 1095.05 649.329 1107.97 C 626.027 1083.29 601.052 1059.87 577.15 1035.72 C 551.739 1010.06 527.187 983.364 500.454 959.055 L 608.299 853.686 C 621.067 841.094 633.334 828.019 646.293 815.618 z"/>
</svg>